<svg width="1200" height="650" viewBox="0 0 1200 650" fill="none" xmlns="http://www.w3.org/2000/svg">
  <defs>
    <linearGradient id="bg" x1="0" y1="0" x2="1200" y2="650" gradientUnits="userSpaceOnUse">
      <stop stop-color="#2B140A"/>
      <stop offset="0.48" stop-color="#6B3518"/>
      <stop offset="1" stop-color="#F2C078"/>
    </linearGradient>
    <radialGradient id="glow" cx="0" cy="0" r="1" gradientUnits="userSpaceOnUse" gradientTransform="translate(930 180) rotate(128) scale(520 360)">
      <stop stop-color="#FFE0A3" stop-opacity="0.9"/>
      <stop offset="1" stop-color="#FFE0A3" stop-opacity="0"/>
    </radialGradient>
    <filter id="shadow" x="-20%" y="-20%" width="140%" height="140%" color-interpolation-filters="sRGB">
      <feDropShadow dx="0" dy="24" stdDeviation="25" flood-color="#1B0B04" flood-opacity="0.35"/>
    </filter>
  </defs>

  <rect width="1200" height="650" rx="42" fill="url(#bg)"/>
  <rect width="1200" height="650" rx="42" fill="url(#glow)"/>

  <circle cx="1020" cy="100" r="170" fill="#FFF0D0" fill-opacity="0.13"/>
  <circle cx="102" cy="540" r="210" fill="#140804" fill-opacity="0.22"/>

  <rect x="76" y="72" width="1048" height="506" rx="34" fill="#FFF7EC" fill-opacity="0.11" stroke="#FFF7EC" stroke-opacity="0.24" filter="url(#shadow)"/>

  <g transform="translate(92 90)">
    <rect width="1016" height="64" rx="24" fill="#FFF9EF" fill-opacity="0.14"/>
    <circle cx="34" cy="32" r="10" fill="#FFB86B"/>
    <circle cx="63" cy="32" r="10" fill="#FFE2AC"/>
    <circle cx="92" cy="32" r="10" fill="#D9894A"/>
    <text x="134" y="39" font-family="Inter, Arial, sans-serif" font-size="20" font-weight="700" fill="#FFF7EC">Celebration Point Cafe</text>
    <text x="780" y="39" font-family="Inter, Arial, sans-serif" font-size="15" font-weight="600" fill="#FFF7EC" fill-opacity="0.78">Home  •  Menu  •  Gallery  •  Contact</text>
  </g>

  <g transform="translate(120 205)">
    <text x="0" y="0" font-family="Georgia, 'Times New Roman', serif" font-size="64" font-weight="700" fill="#FFF7EC">Celebration Point</text>
    <text x="0" y="74" font-family="Georgia, 'Times New Roman', serif" font-size="64" font-weight="700" fill="#FFE0A3">Cafe Website</text>
    <text x="0" y="130" font-family="Inter, Arial, sans-serif" font-size="24" font-weight="600" fill="#FFF7EC" fill-opacity="0.9">Premium responsive cafe website for Betul, Madhya Pradesh</text>
    <rect x="0" y="170" width="180" height="52" rx="26" fill="#FFE0A3"/>
    <text x="43" y="204" font-family="Inter, Arial, sans-serif" font-size="18" font-weight="800" fill="#3A1A0A">View Menu</text>
    <rect x="200" y="170" width="190" height="52" rx="26" fill="#FFFFFF" fill-opacity="0.12" stroke="#FFF7EC" stroke-opacity="0.38"/>
    <text x="244" y="204" font-family="Inter, Arial, sans-serif" font-size="18" font-weight="800" fill="#FFF7EC">Book Table</text>
  </g>

  <g transform="translate(760 205)">
    <rect x="0" y="0" width="278" height="290" rx="34" fill="#FFF7EC" filter="url(#shadow)"/>
    <circle cx="139" cy="116" r="74" fill="#8F431C"/>
    <circle cx="139" cy="116" r="54" fill="#F7C06D"/>
    <circle cx="113" cy="98" r="13" fill="#FFF0D0"/>
    <circle cx="158" cy="136" r="15" fill="#FFF0D0"/>
    <path d="M78 216C112 190 168 190 202 216" stroke="#8F431C" stroke-width="18" stroke-linecap="round"/>
    <rect x="57" y="232" width="164" height="18" rx="9" fill="#3A1A0A" opacity="0.84"/>
    <text x="43" y="274" font-family="Inter, Arial, sans-serif" font-size="18" font-weight="800" fill="#3A1A0A">Warm Cafe Experience</text>
  </g>

  <g transform="translate(120 520)">
    <rect width="174" height="44" rx="22" fill="#FFFFFF" fill-opacity="0.13"/>
    <text x="26" y="29" font-family="Inter, Arial, sans-serif" font-size="15" font-weight="700" fill="#FFF7EC">Modern UI</text>
    <rect x="196" width="174" height="44" rx="22" fill="#FFFFFF" fill-opacity="0.13"/>
    <text x="223" y="29" font-family="Inter, Arial, sans-serif" font-size="15" font-weight="700" fill="#FFF7EC">Responsive</text>
    <rect x="392" width="174" height="44" rx="22" fill="#FFFFFF" fill-opacity="0.13"/>
    <text x="425" y="29" font-family="Inter, Arial, sans-serif" font-size="15" font-weight="700" fill="#FFF7EC">Menu Cards</text>
  </g>
</svg>
